<?xml version="1.0" encoding="utf-8"?>
<!-- Generator: Adobe Illustrator 20.1.0, SVG Export Plug-In . SVG Version: 6.00 Build 0)  -->
<svg version="1.1" id="Layer_1" xmlns="http://www.w3.org/2000/svg" xmlns:xlink="http://www.w3.org/1999/xlink" x="0px" y="0px"
	 viewBox="0 0 100 100" style="enable-background:new 0 0 100 100;" xml:space="preserve">
<style type="text/css">
	.st0{fill:#414042;}
	.st1{fill:#363636;}
	.st2{fill:#4C4D4F;}
</style>
<g>
	<path class="st0" d="M29.9,5.3C28.5,5.7,27,6.2,25.8,7c-1.4,0.9-2.6,2.3-3.8,3.5c-2,1.9-4.5,3.3-6.6,5c-6.2,5-9.9,12.6-12.1,20.3
		c-3.5,11.9-3.6,25.6,3.6,35.7c2.1,3,4.8,5.6,6.5,8.9c0.7,1.5,1.2,3,2.3,4.2c0.8,0.9,1.8,1.4,2.8,2c4.1,2.4,8.3,4.7,12.4,7.1
		c1.7,1,3.5,2,5.3,2.7c2.5,1,5.3,1.4,8,1.6c15.2,1.3,31.1-4,41.6-15.1c2.1-2.2,4-4.7,5.6-7.3c8-12.9,9.3-29.8,3.2-43.8
		C89,19.3,78,9.4,65.1,4.5C60.2,2.6,54,0,48.7,1.2C42.4,2.6,36.1,3.4,29.9,5.3z"/>
	<path class="st0" d="M48.7,1.2c-6.3,1.4-12.6,2.2-18.8,4.1C28.5,5.7,27,6.2,25.8,7"/>
	<path class="st1" d="M23.9,22.1c0,0-3.5-0.7-5.2,3s1.5,8.8,1.5,8.8s-2.5-3.9-0.8-7.2C21.2,23.4,23.9,22.1,23.9,22.1z"/>
	<path class="st2" d="M29.8,24.4c0,0,2.7,2.2,1.9,6.2c-0.8,4-6.6,5.3-6.6,5.3s4-2.1,4.9-5.1C31.1,27.8,29.8,24.4,29.8,24.4z"/>
	<path class="st1" d="M61.4,13.1c0,0-3.8-1.9-8.1,2.9s3,10.4,3,10.4s-4.2-4.6-1.3-9S61.4,13.1,61.4,13.1z"/>
	<path class="st1" d="M62.5,48.3c0,0-3.8-0.6-8.1,1.7c-4.4,2.3-5.2,5.3-4.5,10.2s6.7,7,6.7,7s-4.2-4.4-4.6-7.7s0.7-5.8,3.5-8.3
		C58.4,48.7,62.5,48.3,62.5,48.3z"/>
	<path class="st2" d="M65,49.3c0,0,6.2,4.1,5.1,10.8c-1.2,6.7-10.4,7.7-10.4,7.7s5.8-1.2,7.7-8S65,49.3,65,49.3z"/>
	<path class="st2" d="M21.5,85.8c0,0,3.3-0.1,5.9-2s3.3-6.2,3.3-6.2s1.7,4.5-1.5,7.3C25.9,87.7,21.5,85.8,21.5,85.8z"/>
	<path class="st1" d="M28.9,75.7c0,0-2.3-2.2-6.2-1.1c-3.8,1.2-4.4,3.8-4.4,5.2c0,1.4,1,3.7,1,3.7s-0.2-2.8,0.4-4.1
		c0.6-1.3,1.8-3.2,4.1-3.7C26.1,75.2,28.9,75.7,28.9,75.7z"/>
	<path class="st2" d="M64.3,14.1c0,0,3.9,3,3,8.6c-0.9,5.5-8.3,4.4-8.3,4.4s4.6-0.4,6.1-4.6C66.6,18.1,64.3,14.1,64.3,14.1z"/>
	<path class="st1" d="M6.7,49c0,0-3,1-2.8,4.6s3.3,5.2,3.3,5.2s-2.5-2-2.2-4.4C5.4,52.2,6.7,49,6.7,49z"/>
	<path class="st2" d="M7.6,49.7c0,0,1.7,0.1,2.6,3.3S8.6,59,8.6,59S9.3,55.8,9,54C8.7,52.1,7.6,49.7,7.6,49.7z"/>
	<path class="st1" d="M86,63.5c0,0-3.1,0.2-3.4,2.9c-0.2,2.8,2.5,4.5,2.5,4.5s-2.1-2-1.5-3.7C84.3,65.7,86,63.5,86,63.5z"/>
	<path class="st2" d="M86.8,64.2c0,0,1.7,0.4,2.1,3s-2.4,4.1-2.4,4.1s1.2-2.2,1.2-3.7S86.8,64.2,86.8,64.2z"/>
	<path class="st1" d="M68.6,84.1c0,0-7-2.8-11.3-0.9s-3.5,8.1-3.5,8.1s1.9-5.7,4.9-6.5C61.8,84,68.6,84.1,68.6,84.1z"/>
	<path class="st2" d="M68.1,85.1c0,0,1.4,4.5-1.5,6.8c-2.9,2.2-11.2,0.9-11.2,0.9s6.8,0.3,10-2.2C68.5,88,68.1,85.1,68.1,85.1z"/>
	<path class="st1" d="M76,30.3c0,0-4.3,1.4-4.9,4.6c-0.7,3.3,5.4,7.3,5.4,7.3s-4.2-3.3-3.7-6.7C73.3,32.1,76,30.3,76,30.3z"/>
	<path class="st2" d="M77.3,30.6c0,0,5.7,1.9,6,5.8c0.3,3.9-4.5,5.6-4.5,5.6s3.3-3.3,3-5.3C81.4,34.6,77.3,30.6,77.3,30.6z"/>
	<path class="st1" d="M28.2,46.2c0,0-3.1-0.2-3.6,2.6c-0.5,2.8,2.9,3.6,2.9,3.6s-2.3-1.2-2-3.2C25.9,47.3,28.2,46.2,28.2,46.2z"/>
	<path class="st2" d="M28.9,46.4c0,0,2.8,0.7,2.7,3.2s-3.3,2.9-3.3,2.9s2-0.7,2-2.7C30.4,47.8,28.9,46.4,28.9,46.4z"/>
</g>
</svg>
