<?xml version="1.0" encoding="utf-8"?>
<!-- Generator: Adobe Illustrator 20.1.0, SVG Export Plug-In . SVG Version: 6.00 Build 0)  -->
<svg version="1.1" id="Layer_2" xmlns="http://www.w3.org/2000/svg" xmlns:xlink="http://www.w3.org/1999/xlink" x="0px" y="0px"
	 viewBox="0 0 500 291" style="enable-background:new 0 0 500 291;" xml:space="preserve">
<style type="text/css">
	.st0{fill:#A03D2B;}
	.st1{fill:#BCBEC0;}
	.st2{fill:#EBFCFF;}
</style>
<polygon class="st0" points="229,62.5 156.2,7.5 3.3,3.1 62.8,115.3 "/>
<polygon class="st0" points="229,227.8 156.2,282.9 3.3,287.3 62.8,175 "/>
<polygon class="st0" points="427.6,87.4 415.4,51.9 361.2,44.7 365.5,70.4 "/>
<polygon class="st0" points="427.6,202.7 415.4,238.3 361.2,245.5 365.5,219.8 "/>
<path class="st1" d="M496.7,146.2c0,0-0.4,0.6-1.2,1.6c-0.8,1-2,2.5-3.6,4.3c-1.6,1.9-3.5,3.9-5.9,6.4c-2.3,2.3-5,5.1-7.9,7.8
	c-11.9,11.2-28.8,24.6-49.1,35.7c-10.2,5.6-21.2,10.7-32.8,14.9c-11.7,4.2-23.9,7.6-36.6,9.9c-6.4,1.1-12.8,2-19.4,2.6
	c-6.5,0.6-13.2,0.9-19.8,1.2c-13.3,0.6-26.9,0.7-40.5,0.4c-13.6-0.2-27.1-1.1-40.5-2.3c-13.3-1.2-26.5-3-39.2-5.2
	c-25.4-4.3-49.1-10.5-69.5-17.4c-20.3-6.8-37.3-14.4-49.1-20.5c-3-1.5-5.6-3-7.9-4.3c-2.3-1.3-4.3-2.5-5.9-3.4
	c-3.2-1.9-4.9-3.1-4.9-3.1v-59.7c0,0,1.7-1.2,4.9-3.1c1.6-0.9,3.5-2.1,5.9-3.4c2.3-1.2,5-2.7,7.9-4.3c11.9-6.1,28.8-13.7,49.1-20.5
	c20.3-6.8,44.1-13.1,69.5-17.4c12.7-2.2,25.8-4,39.2-5.2c13.3-1.2,26.9-2.1,40.5-2.3c13.6-0.3,27.1-0.2,40.5,0.4
	c6.7,0.3,13.3,0.7,19.8,1.2c6.5,0.6,13,1.5,19.4,2.6c12.7,2.3,25,5.7,36.6,9.9c11.7,4.2,22.7,9.3,32.8,14.9
	c20.3,11.1,37.3,24.5,49.1,35.7c3,2.7,5.6,5.6,7.9,7.8c2.3,2.5,4.3,4.5,5.9,6.4c1.6,1.8,2.8,3.3,3.6,4.3c0.8,1,1.2,1.6,1.2,1.6
	V146.2z"/>
<path class="st2" d="M335.7,181.6c0,0,0.1,0,0.1,0c7.4,1,15.1,1.5,23.2,1.5c45.9,0,83.1-17,83.1-38s-37.2-38-83.1-38
	c-8,0-15.8,0.5-23.1,1.5c-0.1,0-0.2,0-0.3,0c-0.5,0.1-1.1,0.1-1.6,0.2l0,0c-17.6,2.7-31.1,17.8-31.1,36.2
	c0,18.5,13.7,33.7,31.4,36.2l0,0C334.7,181.4,335.2,181.5,335.7,181.6z"/>
<polygon class="st0" points="119.4,151 131.3,145.1 273.7,145.1 225.1,151 "/>
</svg>
